<svg xmlns="http://www.w3.org/2000/svg" width="32.356" height="32.356" viewBox="0 0 32.356 32.356"><defs><style>.a{fill:#fff;}</style></defs><path class="a" d="M16.178,0A16.178,16.178,0,1,0,32.356,16.178,16.155,16.155,0,0,0,16.178,0Zm0,30.193A14.015,14.015,0,1,1,30.193,16.178,13.984,13.984,0,0,1,16.178,30.193Z"/><g transform="translate(9 8.865)"><path class="a" d="M.9,14a.9.9,0,0,1-.635-1.533L12.332.4a.9.9,0,0,1,1.27,1.27L1.534,13.738A.894.894,0,0,1,.9,14Zm0,0" transform="translate(0 0)"/><path class="a" d="M12.968,14a.9.9,0,0,1-.635-.263L.264,1.669A.9.9,0,0,1,1.534.4L13.6,12.467A.9.9,0,0,1,12.968,14Zm0,0" transform="translate(0)"/></g></svg>